<svg width="183" height="35" viewBox="0 0 183 35" fill="none" xmlns="http://www.w3.org/2000/svg">
<path d="M0 17.2632C0 12.1473 4.17868 8 9.33333 8H28V9.15789C28 14.2738 23.8213 18.4211 18.6667 18.4211H0V17.2632Z" fill="#FA9F42"/>
<path d="M0 26.5263C0 23.3289 2.61167 20.7368 5.83333 20.7368H7C9.57733 20.7368 11.6667 22.8105 11.6667 25.3684C11.6667 27.9264 9.57733 30 7 30H0V26.5263Z" fill="#FA9F42"/>
<path d="M16.3333 26.5263C16.3333 23.3289 18.945 20.7368 22.1667 20.7368H23.3333C25.9107 20.7368 28 22.8105 28 25.3684C28 27.9264 25.9107 30 23.3333 30H16.3333V26.5263Z" fill="#FA9F42"/>
<path d="M55.327 9.67H48.247V28H44.857V9.67H37.747V6.7H55.327V9.67ZM55.8555 21.28V18.31H64.8255V21.28H55.8555ZM82.8953 9.67H75.8153V28H72.4253V9.67H65.3153V6.7H82.8953V9.67ZM89.2176 28.3C87.9776 28.3 86.8676 28.09 85.8876 27.67C84.9076 27.23 84.0576 26.63 83.3376 25.87C82.6376 25.11 82.0976 24.25 81.7176 23.29C81.3376 22.31 81.1476 21.27 81.1476 20.17C81.1476 19.07 81.3376 18.03 81.7176 17.05C82.0976 16.07 82.6376 15.21 83.3376 14.47C84.0576 13.71 84.9076 13.12 85.8876 12.7C86.8876 12.26 87.9976 12.04 89.2176 12.04C90.4376 12.04 91.5376 12.26 92.5176 12.7C93.5176 13.12 94.3676 13.71 95.0676 14.47C95.7876 15.21 96.3376 16.07 96.7176 17.05C97.0976 18.03 97.2876 19.07 97.2876 20.17C97.2876 21.27 97.0976 22.31 96.7176 23.29C96.3376 24.25 95.7876 25.11 95.0676 25.87C94.3676 26.63 93.5176 27.23 92.5176 27.67C91.5376 28.09 90.4376 28.3 89.2176 28.3ZM84.5376 20.2C84.5376 21.2 84.7476 22.1 85.1676 22.9C85.5876 23.7 86.1476 24.33 86.8476 24.79C87.5476 25.25 88.3376 25.48 89.2176 25.48C90.0776 25.48 90.8576 25.25 91.5576 24.79C92.2776 24.31 92.8476 23.67 93.2676 22.87C93.6876 22.05 93.8976 21.15 93.8976 20.17C93.8976 19.17 93.6876 18.27 93.2676 17.47C92.8476 16.67 92.2776 16.04 91.5576 15.58C90.8576 15.1 90.0776 14.86 89.2176 14.86C88.3376 14.86 87.5476 15.1 86.8476 15.58C86.1476 16.06 85.5876 16.7 85.1676 17.5C84.7476 18.28 84.5376 19.18 84.5376 20.2ZM100.198 31.69C100.498 31.73 100.788 31.77 101.068 31.81C101.368 31.87 101.608 31.9 101.788 31.9C102.128 31.9 102.418 31.79 102.658 31.57C102.918 31.37 103.178 30.99 103.438 30.43C103.698 29.87 104.018 29.06 104.398 28L97.9478 12.31H101.398L106.198 24.64L110.458 12.31H113.638L106.528 31.63C106.308 32.21 105.988 32.74 105.568 33.22C105.148 33.72 104.628 34.11 104.008 34.39C103.388 34.67 102.658 34.81 101.818 34.81C101.578 34.81 101.328 34.79 101.068 34.75C100.808 34.71 100.518 34.65 100.198 34.57V31.69ZM121.776 28.15C120.716 28.15 119.746 27.94 118.866 27.52C117.986 27.08 117.226 26.49 116.586 25.75C115.966 25.01 115.476 24.16 115.116 23.2C114.776 22.24 114.606 21.23 114.606 20.17C114.606 19.05 114.786 18 115.146 17.02C115.506 16.04 116.006 15.18 116.646 14.44C117.306 13.68 118.076 13.09 118.956 12.67C119.836 12.25 120.816 12.04 121.896 12.04C123.156 12.04 124.256 12.34 125.196 12.94C126.156 13.54 126.946 14.32 127.566 15.28V12.31H130.476V27.55C130.476 29.07 130.106 30.36 129.366 31.42C128.646 32.48 127.656 33.29 126.396 33.85C125.136 34.41 123.716 34.69 122.136 34.69C120.396 34.69 118.956 34.39 117.816 33.79C116.676 33.19 115.706 32.37 114.906 31.33L116.766 29.59C117.366 30.43 118.136 31.07 119.076 31.51C120.036 31.95 121.056 32.17 122.136 32.17C123.036 32.17 123.866 32 124.626 31.66C125.406 31.34 126.026 30.83 126.486 30.13C126.946 29.45 127.176 28.59 127.176 27.55V25.15C126.616 26.09 125.846 26.83 124.866 27.37C123.886 27.89 122.856 28.15 121.776 28.15ZM122.856 25.48C123.356 25.48 123.836 25.4 124.296 25.24C124.756 25.06 125.176 24.83 125.556 24.55C125.956 24.25 126.296 23.92 126.576 23.56C126.856 23.18 127.056 22.78 127.176 22.36V18.25C126.916 17.57 126.546 16.98 126.066 16.48C125.586 15.96 125.046 15.56 124.446 15.28C123.846 15 123.236 14.86 122.616 14.86C121.896 14.86 121.246 15.02 120.666 15.34C120.106 15.64 119.626 16.05 119.226 16.57C118.826 17.07 118.516 17.64 118.296 18.28C118.076 18.92 117.966 19.58 117.966 20.26C117.966 20.98 118.086 21.65 118.326 22.27C118.586 22.89 118.936 23.45 119.376 23.95C119.816 24.43 120.336 24.81 120.936 25.09C121.536 25.35 122.176 25.48 122.856 25.48ZM133.293 23.41C133.293 22.41 133.573 21.54 134.133 20.8C134.713 20.04 135.503 19.46 136.503 19.06C137.503 18.64 138.663 18.43 139.983 18.43C140.683 18.43 141.393 18.48 142.113 18.58C142.853 18.68 143.503 18.84 144.063 19.06V18.07C144.063 16.97 143.733 16.11 143.073 15.49C142.413 14.87 141.463 14.56 140.223 14.56C139.343 14.56 138.513 14.72 137.733 15.04C136.953 15.34 136.123 15.77 135.243 16.33L134.133 14.11C135.173 13.41 136.213 12.89 137.253 12.55C138.313 12.21 139.423 12.04 140.583 12.04C142.683 12.04 144.333 12.6 145.533 13.72C146.753 14.82 147.363 16.39 147.363 18.43V24.28C147.363 24.66 147.423 24.93 147.543 25.09C147.683 25.25 147.913 25.34 148.233 25.36V28C147.933 28.06 147.663 28.1 147.423 28.12C147.183 28.14 146.983 28.15 146.823 28.15C146.123 28.15 145.593 27.98 145.233 27.64C144.873 27.3 144.663 26.9 144.603 26.44L144.513 25.54C143.833 26.42 142.963 27.1 141.903 27.58C140.843 28.06 139.773 28.3 138.693 28.3C137.653 28.3 136.723 28.09 135.903 27.67C135.083 27.23 134.443 26.64 133.983 25.9C133.523 25.16 133.293 24.33 133.293 23.41ZM143.283 24.37C143.523 24.11 143.713 23.85 143.853 23.59C143.993 23.33 144.063 23.1 144.063 22.9V21.1C143.503 20.88 142.913 20.72 142.293 20.62C141.673 20.5 141.063 20.44 140.463 20.44C139.263 20.44 138.283 20.68 137.523 21.16C136.783 21.64 136.413 22.3 136.413 23.14C136.413 23.6 136.533 24.04 136.773 24.46C137.033 24.88 137.393 25.22 137.853 25.48C138.333 25.74 138.923 25.87 139.623 25.87C140.343 25.87 141.033 25.73 141.693 25.45C142.353 25.17 142.883 24.81 143.283 24.37ZM151.35 31.69C151.65 31.73 151.94 31.77 152.22 31.81C152.52 31.87 152.76 31.9 152.94 31.9C153.28 31.9 153.57 31.79 153.81 31.57C154.07 31.37 154.33 30.99 154.59 30.43C154.85 29.87 155.17 29.06 155.55 28L149.1 12.31H152.55L157.35 24.64L161.61 12.31H164.79L157.68 31.63C157.46 32.21 157.14 32.74 156.72 33.22C156.3 33.72 155.78 34.11 155.16 34.39C154.54 34.67 153.81 34.81 152.97 34.81C152.73 34.81 152.48 34.79 152.22 34.75C151.96 34.71 151.67 34.65 151.35 34.57V31.69ZM165.666 23.41C165.666 22.41 165.946 21.54 166.506 20.8C167.086 20.04 167.876 19.46 168.876 19.06C169.876 18.64 171.036 18.43 172.356 18.43C173.056 18.43 173.766 18.48 174.486 18.58C175.226 18.68 175.876 18.84 176.436 19.06V18.07C176.436 16.97 176.106 16.11 175.446 15.49C174.786 14.87 173.836 14.56 172.596 14.56C171.716 14.56 170.886 14.72 170.106 15.04C169.326 15.34 168.496 15.77 167.616 16.33L166.506 14.11C167.546 13.41 168.586 12.89 169.626 12.55C170.686 12.21 171.796 12.04 172.956 12.04C175.056 12.04 176.706 12.6 177.906 13.72C179.126 14.82 179.736 16.39 179.736 18.43V24.28C179.736 24.66 179.796 24.93 179.916 25.09C180.056 25.25 180.286 25.34 180.606 25.36V28C180.306 28.06 180.036 28.1 179.796 28.12C179.556 28.14 179.356 28.15 179.196 28.15C178.496 28.15 177.966 27.98 177.606 27.64C177.246 27.3 177.036 26.9 176.976 26.44L176.886 25.54C176.206 26.42 175.336 27.1 174.276 27.58C173.216 28.06 172.146 28.3 171.066 28.3C170.026 28.3 169.096 28.09 168.276 27.67C167.456 27.23 166.816 26.64 166.356 25.9C165.896 25.16 165.666 24.33 165.666 23.41ZM175.656 24.37C175.896 24.11 176.086 23.85 176.226 23.59C176.366 23.33 176.436 23.1 176.436 22.9V21.1C175.876 20.88 175.286 20.72 174.666 20.62C174.046 20.5 173.436 20.44 172.836 20.44C171.636 20.44 170.656 20.68 169.896 21.16C169.156 21.64 168.786 22.3 168.786 23.14C168.786 23.6 168.906 24.04 169.146 24.46C169.406 24.88 169.766 25.22 170.226 25.48C170.706 25.74 171.296 25.87 171.996 25.87C172.716 25.87 173.406 25.73 174.066 25.45C174.726 25.17 175.256 24.81 175.656 24.37Z" fill="#353A5A"/>
</svg>
