<svg width="11" height="130" viewBox="0 0 11 130" fill="none" xmlns="http://www.w3.org/2000/svg">
<path d="M6 129L2 124.871M6 129L10 124.871M6 129V113" stroke="#FDFDFD" stroke-width="2" stroke-linecap="round" stroke-linejoin="round"/>
<path d="M10 89.8358H0.928L0.928 93.8958L3.028 93.9518C4.4 93.9984 5.53867 94.0964 6.444 94.2458C7.34933 94.3951 8.06333 94.6051 8.586 94.8758C9.09933 95.1464 9.468 95.4778 9.692 95.8698C9.90667 96.2618 10.014 96.7284 10.014 97.2698H9.146C9.146 96.9058 9.05267 96.5838 8.866 96.3038C8.67933 96.0238 8.35267 95.7858 7.886 95.5898C7.41933 95.3938 6.77533 95.2398 5.954 95.1278C5.12333 95.0064 4.07333 94.9271 2.804 94.8898L0.0599995 94.8058L0.0599995 88.8698H10V89.8358ZM10 86.5939H2.72V85.6419H8.712L2.706 81.2039V80.3499H10V81.3019H4.106L10 85.6699V86.5939ZM10.14 75.1034C10.14 75.6354 10.042 76.1254 9.846 76.5734C9.64067 77.012 9.36067 77.3994 9.006 77.7354C8.65133 78.062 8.24533 78.3187 7.788 78.5054C7.33067 78.6827 6.84533 78.7714 6.332 78.7714C5.64133 78.7714 5.01133 78.6174 4.442 78.3094C3.87267 78.0014 3.42 77.572 3.084 77.0214C2.748 76.4707 2.58 75.836 2.58 75.1174C2.58 74.436 2.73867 73.834 3.056 73.3114C3.364 72.7887 3.784 72.4014 4.316 72.1494L4.61 73.0734C4.23667 73.2787 3.94733 73.568 3.742 73.9414C3.52733 74.3054 3.42 74.7114 3.42 75.1594C3.42 75.6447 3.546 76.088 3.798 76.4894C4.05 76.8907 4.39533 77.2127 4.834 77.4554C5.27267 77.6887 5.772 77.8054 6.332 77.8054C6.88267 77.8054 7.382 77.684 7.83 77.4414C8.278 77.1987 8.63733 76.8767 8.908 76.4754C9.16933 76.074 9.3 75.6307 9.3 75.1454C9.3 74.828 9.244 74.5247 9.132 74.2354C9.02 73.9367 8.87067 73.68 8.684 73.4654C8.488 73.2414 8.278 73.092 8.054 73.0174L8.334 72.0794C8.67933 72.21 8.992 72.4294 9.272 72.7374C9.54267 73.036 9.75733 73.3907 9.916 73.8014C10.0653 74.2027 10.14 74.6367 10.14 75.1034ZM10 68.7638H3.56V71.3678H2.706L2.706 65.2078H3.56L3.56 67.8118H10V68.7638ZM7.9 64.5409C7.44267 64.5409 7.05067 64.4103 6.724 64.1489C6.388 63.8876 6.13133 63.5283 5.954 63.0709C5.76733 62.6043 5.674 62.0676 5.674 61.4609C5.674 61.1063 5.702 60.7376 5.758 60.3549C5.814 59.9723 5.898 59.6316 6.01 59.3329H5.394C4.778 59.3329 4.288 59.5149 3.924 59.8789C3.56 60.2429 3.378 60.7469 3.378 61.3909C3.378 61.7829 3.45267 62.1703 3.602 62.5529C3.742 62.9263 3.952 63.3183 4.232 63.7289L3.56 64.0929C3.23333 63.6169 2.99067 63.1503 2.832 62.6929C2.664 62.2356 2.58 61.7689 2.58 61.2929C2.58 60.3969 2.83667 59.6876 3.35 59.1649C3.86333 58.6423 4.57267 58.3809 5.478 58.3809H8.852C8.98267 58.3809 9.08067 58.3529 9.146 58.2969C9.202 58.2409 9.23467 58.1523 9.244 58.0309H10C10.0093 58.1336 10.0187 58.2223 10.028 58.2969C10.0373 58.3716 10.0373 58.4276 10.028 58.4649C10.0187 58.6983 9.944 58.8756 9.804 58.9969C9.664 59.1183 9.51467 59.1836 9.356 59.1929L8.824 59.2069C9.244 59.5336 9.57067 59.9583 9.804 60.4809C10.028 61.0036 10.14 61.5356 10.14 62.0769C10.14 62.5436 10.042 62.9683 9.846 63.3509C9.64067 63.7243 9.37 64.0183 9.034 64.2329C8.68867 64.4383 8.31067 64.5409 7.9 64.5409ZM8.46 59.6549C8.32933 59.5523 8.20333 59.4729 8.082 59.4169C7.96067 59.3609 7.85333 59.3329 7.76 59.3329H6.696C6.57467 59.6503 6.48133 59.9816 6.416 60.3269C6.35067 60.6629 6.318 61.0036 6.318 61.3489C6.318 62.0303 6.45333 62.5809 6.724 63.0009C6.99467 63.4209 7.36333 63.6309 7.83 63.6309C8.10067 63.6309 8.35733 63.5609 8.6 63.4209C8.83333 63.2809 9.02933 63.0756 9.188 62.8049C9.33733 62.5343 9.412 62.2169 9.412 61.8529C9.412 61.3956 9.32333 60.9709 9.146 60.5789C8.96867 60.1776 8.74 59.8696 8.46 59.6549ZM10 56.338H2.72V55.386H8.712L2.706 50.948L2.706 50.094H10V51.046H4.106L10 55.414V56.338ZM1.782 53.202C1.782 53.8367 1.63267 54.3267 1.334 54.672C1.03533 55.0174 0.657333 55.19 0.199999 55.19L0.199999 54.49C0.48 54.49 0.713333 54.3874 0.899999 54.182C1.08667 53.9674 1.18 53.6407 1.18 53.202C1.18 52.7727 1.09133 52.46 0.913999 52.264C0.736666 52.0587 0.498666 51.942 0.199999 51.914L0.199999 51.228C0.657333 51.228 1.03533 51.4007 1.334 51.746C1.63267 52.0914 1.782 52.5767 1.782 53.202ZM10 46.1915H3.56V48.7955H2.706L2.706 42.6355H3.56L3.56 45.2395H10V46.1915ZM10.14 38.1896C10.14 38.7123 10.042 39.1976 9.846 39.6456C9.64067 40.0936 9.36533 40.481 9.02 40.8076C8.66533 41.1343 8.25933 41.391 7.802 41.5776C7.34467 41.755 6.85467 41.8436 6.332 41.8436C5.65067 41.8436 5.02533 41.6896 4.456 41.3816C3.88667 41.0643 3.434 40.6303 3.098 40.0796C2.75267 39.529 2.58 38.9036 2.58 38.2036C2.58 37.485 2.75267 36.8596 3.098 36.3276C3.44333 35.7863 3.90067 35.3616 4.47 35.0536C5.03 34.7456 5.646 34.5916 6.318 34.5916C6.39267 34.5916 6.46733 34.5916 6.542 34.5916C6.60733 34.5916 6.65867 34.5963 6.696 34.6056V40.8496C7.21867 40.803 7.68533 40.6583 8.096 40.4156C8.49733 40.1636 8.81933 39.8416 9.062 39.4496C9.29533 39.0483 9.412 38.6143 9.412 38.1476C9.412 37.6716 9.29067 37.2236 9.048 36.8036C8.80533 36.3743 8.488 36.0756 8.096 35.9076L8.32 35.0816C8.66533 35.231 8.978 35.4596 9.258 35.7676C9.538 36.0756 9.75733 36.4396 9.916 36.8596C10.0653 37.2703 10.14 37.7136 10.14 38.1896ZM6.01 40.8776V35.4876C5.478 35.525 5.01133 35.6696 4.61 35.9216C4.20867 36.1643 3.896 36.4863 3.672 36.8876C3.43867 37.2796 3.322 37.7136 3.322 38.1896C3.322 38.6656 3.43867 39.0996 3.672 39.4916C3.896 39.8836 4.21333 40.2056 4.624 40.4576C5.02533 40.7003 5.48733 40.8403 6.01 40.8776ZM10 29.5685H2.706L2.706 25.9285C2.706 25.5178 2.79467 25.1725 2.972 24.8925C3.14 24.6125 3.35933 24.4025 3.63 24.2625C3.90067 24.1132 4.19 24.0385 4.498 24.0385C4.89 24.0385 5.24467 24.1318 5.562 24.3185C5.87 24.5052 6.10333 24.7758 6.262 25.1305C6.38333 24.7105 6.60267 24.3698 6.92 24.1085C7.23733 23.8472 7.62 23.7165 8.068 23.7165C8.46 23.7165 8.80067 23.8145 9.09 24.0105C9.37933 24.1972 9.60333 24.4585 9.762 24.7945C9.92067 25.1212 10 25.4992 10 25.9285V29.5685ZM9.314 28.6585V25.9565C9.314 25.7138 9.25333 25.4945 9.132 25.2985C9.00133 25.0932 8.83333 24.9345 8.628 24.8225C8.42267 24.7012 8.208 24.6405 7.984 24.6405C7.74133 24.6405 7.522 24.6965 7.326 24.8085C7.12067 24.9205 6.95733 25.0698 6.836 25.2565C6.71467 25.4432 6.654 25.6578 6.654 25.9005V28.6585H9.314ZM5.996 28.6585V26.1805C5.996 25.9378 5.93067 25.7232 5.8 25.5365C5.66933 25.3498 5.50133 25.2052 5.296 25.1025C5.09067 24.9998 4.876 24.9485 4.652 24.9485C4.316 24.9485 4.022 25.0605 3.77 25.2845C3.518 25.4992 3.392 25.7792 3.392 26.1245V28.6585H5.996ZM10 22.0763H2.706L2.706 21.1243H5.842L5.842 16.9523H2.706V16.0003H10V16.9523H6.696L6.696 21.1243H10V22.0763ZM10 13.9142H2.72V12.9622H8.712L2.706 8.5242V7.67019H10V8.6222H4.106L10 12.9902V13.9142ZM10.084 3.4737C10.084 4.1457 9.958 4.7197 9.706 5.1957C9.44467 5.6717 9.08067 6.0357 8.614 6.2877L8.264 5.5037C8.59067 5.32636 8.84733 5.0697 9.034 4.7337C9.21133 4.3977 9.3 3.9917 9.3 3.5157C9.3 2.94636 9.16933 2.4937 8.908 2.15769C8.64667 1.81236 8.29667 1.63969 7.858 1.63969C7.45667 1.63969 7.13467 1.77503 6.892 2.0457C6.64933 2.31636 6.52333 2.6897 6.514 3.1657L6.514 3.9077H5.856L5.856 3.1097C5.856 2.90436 5.8 2.7177 5.688 2.54969C5.576 2.3817 5.42667 2.25103 5.24 2.15769C5.05333 2.06436 4.84333 2.0177 4.61 2.0177C4.246 2.0177 3.952 2.14836 3.728 2.4097C3.504 2.6617 3.392 3.03503 3.392 3.5297C3.392 3.94036 3.476 4.2857 3.644 4.5657C3.80267 4.83636 4.04067 5.0557 4.358 5.2237L3.966 5.9517C3.53667 5.73703 3.20067 5.4197 2.958 4.9997C2.71533 4.57036 2.594 4.07103 2.594 3.5017C2.594 3.03503 2.67333 2.62903 2.832 2.2837C2.98133 1.92903 3.20067 1.6537 3.49 1.4577C3.77 1.25236 4.11067 1.1497 4.512 1.1497C4.85733 1.1497 5.17933 1.2337 5.478 1.4017C5.76733 1.5697 5.98667 1.80303 6.136 2.1017C6.26667 1.67236 6.49533 1.34103 6.822 1.1077C7.14867 0.865028 7.53133 0.743695 7.97 0.743695C8.40867 0.743695 8.78667 0.860362 9.104 1.09369C9.42133 1.32703 9.664 1.64903 9.832 2.0597C10 2.47036 10.084 2.9417 10.084 3.4737Z" fill="#FDFDFD"/>
</svg>
