<svg width="185" height="35" viewBox="0 0 185 35" fill="none" xmlns="http://www.w3.org/2000/svg">
<path d="M58.2701 9.67H51.1901V28H47.8001V9.67H40.6901V6.7H58.2701V9.67ZM58.7986 21.28V18.31H67.7686V21.28H58.7986ZM85.8384 9.67H78.7584V28H75.3684V9.67H68.2584V6.7H85.8384V9.67ZM92.1607 28.3C90.9207 28.3 89.8107 28.09 88.8307 27.67C87.8507 27.23 87.0007 26.63 86.2807 25.87C85.5807 25.11 85.0407 24.25 84.6607 23.29C84.2807 22.31 84.0907 21.27 84.0907 20.17C84.0907 19.07 84.2807 18.03 84.6607 17.05C85.0407 16.07 85.5807 15.21 86.2807 14.47C87.0007 13.71 87.8507 13.12 88.8307 12.7C89.8307 12.26 90.9407 12.04 92.1607 12.04C93.3807 12.04 94.4807 12.26 95.4607 12.7C96.4607 13.12 97.3107 13.71 98.0107 14.47C98.7307 15.21 99.2807 16.07 99.6607 17.05C100.041 18.03 100.231 19.07 100.231 20.17C100.231 21.27 100.041 22.31 99.6607 23.29C99.2807 24.25 98.7307 25.11 98.0107 25.87C97.3107 26.63 96.4607 27.23 95.4607 27.67C94.4807 28.09 93.3807 28.3 92.1607 28.3ZM87.4807 20.2C87.4807 21.2 87.6907 22.1 88.1107 22.9C88.5307 23.7 89.0907 24.33 89.7907 24.79C90.4907 25.25 91.2807 25.48 92.1607 25.48C93.0207 25.48 93.8007 25.25 94.5007 24.79C95.2207 24.31 95.7907 23.67 96.2107 22.87C96.6307 22.05 96.8407 21.15 96.8407 20.17C96.8407 19.17 96.6307 18.27 96.2107 17.47C95.7907 16.67 95.2207 16.04 94.5007 15.58C93.8007 15.1 93.0207 14.86 92.1607 14.86C91.2807 14.86 90.4907 15.1 89.7907 15.58C89.0907 16.06 88.5307 16.7 88.1107 17.5C87.6907 18.28 87.4807 19.18 87.4807 20.2ZM103.141 31.69C103.441 31.73 103.731 31.77 104.011 31.81C104.311 31.87 104.551 31.9 104.731 31.9C105.071 31.9 105.361 31.79 105.601 31.57C105.861 31.37 106.121 30.99 106.381 30.43C106.641 29.87 106.961 29.06 107.341 28L100.891 12.31H104.341L109.141 24.64L113.401 12.31H116.581L109.471 31.63C109.251 32.21 108.931 32.74 108.511 33.22C108.091 33.72 107.571 34.11 106.951 34.39C106.331 34.67 105.601 34.81 104.761 34.81C104.521 34.81 104.271 34.79 104.011 34.75C103.751 34.71 103.461 34.65 103.141 34.57V31.69ZM124.719 28.15C123.659 28.15 122.689 27.94 121.809 27.52C120.929 27.08 120.169 26.49 119.529 25.75C118.909 25.01 118.419 24.16 118.059 23.2C117.719 22.24 117.549 21.23 117.549 20.17C117.549 19.05 117.729 18 118.089 17.02C118.449 16.04 118.949 15.18 119.589 14.44C120.249 13.68 121.019 13.09 121.899 12.67C122.779 12.25 123.759 12.04 124.839 12.04C126.099 12.04 127.199 12.34 128.139 12.94C129.099 13.54 129.889 14.32 130.509 15.28V12.31H133.419V27.55C133.419 29.07 133.049 30.36 132.309 31.42C131.589 32.48 130.599 33.29 129.339 33.85C128.079 34.41 126.659 34.69 125.079 34.69C123.339 34.69 121.899 34.39 120.759 33.79C119.619 33.19 118.649 32.37 117.849 31.33L119.709 29.59C120.309 30.43 121.079 31.07 122.019 31.51C122.979 31.95 123.999 32.17 125.079 32.17C125.979 32.17 126.809 32 127.569 31.66C128.349 31.34 128.969 30.83 129.429 30.13C129.889 29.45 130.119 28.59 130.119 27.55V25.15C129.559 26.09 128.789 26.83 127.809 27.37C126.829 27.89 125.799 28.15 124.719 28.15ZM125.799 25.48C126.299 25.48 126.779 25.4 127.239 25.24C127.699 25.06 128.119 24.83 128.499 24.55C128.899 24.25 129.239 23.92 129.519 23.56C129.799 23.18 129.999 22.78 130.119 22.36V18.25C129.859 17.57 129.489 16.98 129.009 16.48C128.529 15.96 127.989 15.56 127.389 15.28C126.789 15 126.179 14.86 125.559 14.86C124.839 14.86 124.189 15.02 123.609 15.34C123.049 15.64 122.569 16.05 122.169 16.57C121.769 17.07 121.459 17.64 121.239 18.28C121.019 18.92 120.909 19.58 120.909 20.26C120.909 20.98 121.029 21.65 121.269 22.27C121.529 22.89 121.879 23.45 122.319 23.95C122.759 24.43 123.279 24.81 123.879 25.09C124.479 25.35 125.119 25.48 125.799 25.48ZM136.236 23.41C136.236 22.41 136.516 21.54 137.076 20.8C137.656 20.04 138.446 19.46 139.446 19.06C140.446 18.64 141.606 18.43 142.926 18.43C143.626 18.43 144.336 18.48 145.056 18.58C145.796 18.68 146.446 18.84 147.006 19.06V18.07C147.006 16.97 146.676 16.11 146.016 15.49C145.356 14.87 144.406 14.56 143.166 14.56C142.286 14.56 141.456 14.72 140.676 15.04C139.896 15.34 139.066 15.77 138.186 16.33L137.076 14.11C138.116 13.41 139.156 12.89 140.196 12.55C141.256 12.21 142.366 12.04 143.526 12.04C145.626 12.04 147.276 12.6 148.476 13.72C149.696 14.82 150.306 16.39 150.306 18.43V24.28C150.306 24.66 150.366 24.93 150.486 25.09C150.626 25.25 150.856 25.34 151.176 25.36V28C150.876 28.06 150.606 28.1 150.366 28.12C150.126 28.14 149.926 28.15 149.766 28.15C149.066 28.15 148.536 27.98 148.176 27.64C147.816 27.3 147.606 26.9 147.546 26.44L147.456 25.54C146.776 26.42 145.906 27.1 144.846 27.58C143.786 28.06 142.716 28.3 141.636 28.3C140.596 28.3 139.666 28.09 138.846 27.67C138.026 27.23 137.386 26.64 136.926 25.9C136.466 25.16 136.236 24.33 136.236 23.41ZM146.226 24.37C146.466 24.11 146.656 23.85 146.796 23.59C146.936 23.33 147.006 23.1 147.006 22.9V21.1C146.446 20.88 145.856 20.72 145.236 20.62C144.616 20.5 144.006 20.44 143.406 20.44C142.206 20.44 141.226 20.68 140.466 21.16C139.726 21.64 139.356 22.3 139.356 23.14C139.356 23.6 139.476 24.04 139.716 24.46C139.976 24.88 140.336 25.22 140.796 25.48C141.276 25.74 141.866 25.87 142.566 25.87C143.286 25.87 143.976 25.73 144.636 25.45C145.296 25.17 145.826 24.81 146.226 24.37ZM154.293 31.69C154.593 31.73 154.883 31.77 155.163 31.81C155.463 31.87 155.703 31.9 155.883 31.9C156.223 31.9 156.513 31.79 156.753 31.57C157.013 31.37 157.273 30.99 157.533 30.43C157.793 29.87 158.113 29.06 158.493 28L152.043 12.31H155.493L160.293 24.64L164.553 12.31H167.733L160.623 31.63C160.403 32.21 160.083 32.74 159.663 33.22C159.243 33.72 158.723 34.11 158.103 34.39C157.483 34.67 156.753 34.81 155.913 34.81C155.673 34.81 155.423 34.79 155.163 34.75C154.903 34.71 154.613 34.65 154.293 34.57V31.69ZM168.609 23.41C168.609 22.41 168.889 21.54 169.449 20.8C170.029 20.04 170.819 19.46 171.819 19.06C172.819 18.64 173.979 18.43 175.299 18.43C175.999 18.43 176.709 18.48 177.429 18.58C178.169 18.68 178.819 18.84 179.379 19.06V18.07C179.379 16.97 179.049 16.11 178.389 15.49C177.729 14.87 176.779 14.56 175.539 14.56C174.659 14.56 173.829 14.72 173.049 15.04C172.269 15.34 171.439 15.77 170.559 16.33L169.449 14.11C170.489 13.41 171.529 12.89 172.569 12.55C173.629 12.21 174.739 12.04 175.899 12.04C177.999 12.04 179.649 12.6 180.849 13.72C182.069 14.82 182.679 16.39 182.679 18.43V24.28C182.679 24.66 182.739 24.93 182.859 25.09C182.999 25.25 183.229 25.34 183.549 25.36V28C183.249 28.06 182.979 28.1 182.739 28.12C182.499 28.14 182.299 28.15 182.139 28.15C181.439 28.15 180.909 27.98 180.549 27.64C180.189 27.3 179.979 26.9 179.919 26.44L179.829 25.54C179.149 26.42 178.279 27.1 177.219 27.58C176.159 28.06 175.089 28.3 174.009 28.3C172.969 28.3 172.039 28.09 171.219 27.67C170.399 27.23 169.759 26.64 169.299 25.9C168.839 25.16 168.609 24.33 168.609 23.41ZM178.599 24.37C178.839 24.11 179.029 23.85 179.169 23.59C179.309 23.33 179.379 23.1 179.379 22.9V21.1C178.819 20.88 178.229 20.72 177.609 20.62C176.989 20.5 176.379 20.44 175.779 20.44C174.579 20.44 173.599 20.68 172.839 21.16C172.099 21.64 171.729 22.3 171.729 23.14C171.729 23.6 171.849 24.04 172.089 24.46C172.349 24.88 172.709 25.22 173.169 25.48C173.649 25.74 174.239 25.87 174.939 25.87C175.659 25.87 176.349 25.73 177.009 25.45C177.669 25.17 178.199 24.81 178.599 24.37Z" fill="#FDFDFD"/>
<path d="M0 16.2632C0 11.1473 4.39236 7 9.81061 7H29.4318V8.15789C29.4318 13.2738 25.0395 17.4211 19.6212 17.4211H0V16.2632Z" fill="#FA9F42"/>
<path d="M0 25.5263C0 22.3289 2.74522 19.7368 6.13163 19.7368H7.35795C10.0671 19.7368 12.2633 21.8105 12.2633 24.3684C12.2633 26.9264 10.0671 29 7.35795 29H0V25.5263Z" fill="#FA9F42"/>
<path d="M17.1686 25.5263C17.1686 22.3289 19.9138 19.7368 23.3002 19.7368H24.5265C27.2356 19.7368 29.4318 21.8105 29.4318 24.3684C29.4318 26.9264 27.2356 29 24.5265 29H17.1686V25.5263Z" fill="#FA9F42"/>
</svg>
